<?xml version="1.0" standalone="no"?>
<!DOCTYPE svg PUBLIC "-//W3C//DTD SVG 20010904//EN"
 "http://www.w3.org/TR/2001/REC-SVG-20010904/DTD/svg10.dtd">
<svg version="1.0" xmlns="http://www.w3.org/2000/svg"
 width="400.000000pt" height="400.000000pt" viewBox="0 0 400.000000 400.000000"
 preserveAspectRatio="xMidYMid meet">
<metadata>
Created by potrace 1.14, written by Peter Selinger 2001-2017
</metadata>
<g transform="translate(0.000000,400.000000) scale(0.100000,-0.100000)"
fill="#000000" stroke="none">
<path d="M2306 3205 l-338 -244 -747 -3 -746 -3 -67 -26 c-208 -81 -351 -244
-394 -449 -14 -65 -15 -137 -10 -530 6 -505 10 -543 70 -665 63 -127 166 -228
297 -290 121 -57 177 -65 495 -65 l281 0 114 216 c63 119 116 221 117 225 2 5
-171 9 -385 9 -240 0 -402 4 -426 11 -21 5 -53 24 -72 40 -53 47 -56 81 -53
550 3 467 1 454 82 501 l41 23 601 5 602 5 138 145 c77 80 278 290 447 468
169 177 304 322 300 322 -4 0 -160 -110 -347 -245z"/>
<path d="M2440 3114 c-168 -176 -408 -427 -535 -559 -332 -346 -680 -715 -683
-725 -2 -5 19 -2 45 6 26 8 125 37 218 65 94 28 202 61 240 74 39 13 72 22 73
20 2 -2 -111 -221 -251 -487 -140 -266 -298 -568 -352 -673 -54 -104 -106
-205 -117 -223 -11 -17 -18 -37 -16 -42 2 -5 118 110 258 257 280 294 560 587
1010 1056 162 170 296 312 298 317 2 5 -45 -7 -105 -26 -373 -118 -434 -136
-438 -132 -5 5 363 765 564 1166 56 112 100 209 99 214 -2 6 -141 -133 -308
-308z"/>
<path d="M2541 2798 c-43 -90 -126 -261 -184 -380 -58 -120 -102 -218 -98
-218 4 0 187 70 407 155 l399 155 193 0 c284 0 292 -5 292 -195 0 -99 -4 -124
-18 -141 -35 -44 -45 -45 -441 -44 l-379 0 -453 -462 c-250 -255 -535 -549
-634 -653 -99 -105 -231 -243 -294 -307 -63 -65 -112 -120 -110 -123 3 -2 140
74 305 170 l299 175 885 -1 c867 0 886 0 952 21 115 36 222 129 289 253 l34
62 0 261 0 260 -36 74 -37 73 29 45 c57 89 61 118 57 384 l-3 243 -35 70 c-58
115 -180 225 -290 261 -49 16 -108 18 -553 22 l-498 3 -78 -163z m931 -1078
c65 -18 78 -47 78 -167 l0 -105 -34 -34 -34 -34 -596 0 c-388 0 -596 3 -596
10 0 5 37 84 82 175 l83 165 490 0 c305 0 504 -4 527 -10z"/>
</g>
</svg>
